<mxfile host="app.diagrams.net" agent="Mozilla/5.0 (X11; Linux x86_64) AppleWebKit/537.36 (KHTML, like Gecko) Chrome/129.0.0.0 Safari/537.36" version="24.7.17">
  <diagram name="Page-1" id="Xuou_koJjwVKmUIWTskT">
    <mxGraphModel dx="993" dy="577" grid="1" gridSize="10" guides="1" tooltips="1" connect="1" arrows="1" fold="1" page="1" pageScale="1" pageWidth="850" pageHeight="1100" math="0" shadow="0">
      <root>
        <mxCell id="0" />
        <mxCell id="1" parent="0" />
        <mxCell id="jw4dz4bkq0FRnqumxQG3-4" style="edgeStyle=orthogonalEdgeStyle;rounded=0;orthogonalLoop=1;jettySize=auto;html=1;exitX=1;exitY=0.5;exitDx=0;exitDy=0;entryX=0;entryY=0.5;entryDx=0;entryDy=0;" edge="1" parent="1" source="jw4dz4bkq0FRnqumxQG3-2" target="jw4dz4bkq0FRnqumxQG3-3">
          <mxGeometry relative="1" as="geometry" />
        </mxCell>
        <mxCell id="jw4dz4bkq0FRnqumxQG3-2" value="Start" style="rounded=1;whiteSpace=wrap;html=1;arcSize=50;fillColor=none;" vertex="1" parent="1">
          <mxGeometry x="50" y="70" width="120" height="50" as="geometry" />
        </mxCell>
        <mxCell id="jw4dz4bkq0FRnqumxQG3-3" value="" style="rounded=0;whiteSpace=wrap;html=1;fillColor=none;" vertex="1" parent="1">
          <mxGeometry x="240" y="65" width="120" height="60" as="geometry" />
        </mxCell>
      </root>
    </mxGraphModel>
  </diagram>
</mxfile>
